# xmcd CD database file
#
# Track frame offsets:
#	150
#	23097
#	39402
#	74342
#
# Disc length: 999 seconds
#
# Revision: 0
# Processed by: cddbd v1.5.1PL0 Copyright (c) Steve Scherf et al.
# Submitted via: CDex 1.51
#
DISCID=2b03e504
DTITLE=諫山 実生 - サハラの誘惑
DYEAR=2005
DGENRE=JPop
TTITLE0=サハラの誘惑
TTITLE1=PASSAGE〜明日への夢〜
TTITLE2=君に伝えたいこと
TTITLE3=CD-EXTRA
EXTD=YEAR: 2005
EXTT0=
EXTT1=
EXTT2=
EXTT3=
PLAYORDER=
